<svg width="26" height="22" viewBox="0 0 26 22" fill="none" xmlns="http://www.w3.org/2000/svg">
<path d="M6.568 21.12C5.976 21.12 5.552 20.992 5.296 20.736C5.04 20.464 4.912 19.96 4.912 19.224C4.912 18.728 4.96 18.128 5.056 17.424C5.152 16.72 5.32 15.656 5.56 14.232C5.592 14.04 5.72 13.264 5.944 11.904C6.168 10.528 6.368 9.088 6.544 7.584C6.704 6.304 6.784 5.344 6.784 4.704C6.784 3.984 6.52 3.624 5.992 3.624C5.592 3.624 5.088 3.84 4.48 4.272C3.888 4.688 3.248 5.36 2.56 6.288C2.336 6.592 2.088 6.744 1.816 6.744C1.592 6.744 1.392 6.64 1.216 6.432C1.056 6.208 0.976 5.96 0.976 5.688C0.976 5.416 1.024 5.16 1.12 4.92C1.216 4.664 1.392 4.36 1.648 4.008C2.432 2.936 3.304 2.112 4.264 1.536C5.224 0.943999 6.232 0.647999 7.288 0.647999C8.168 0.647999 8.824 0.919999 9.256 1.464C9.704 2.008 9.928 2.8 9.928 3.84C9.928 4.768 9.8 6.112 9.544 7.872C10.344 5.504 11.36 3.712 12.592 2.496C13.824 1.264 15.272 0.647999 16.936 0.647999C18.248 0.647999 19.232 1.024 19.888 1.776C20.56 2.512 20.896 3.504 20.896 4.752C20.896 5.456 20.792 6.312 20.584 7.32L19.12 14.184C18.96 14.984 18.88 15.672 18.88 16.248C18.88 16.92 19.032 17.424 19.336 17.76C19.656 18.096 20.096 18.264 20.656 18.264C21.184 18.264 21.696 18.088 22.192 17.736C22.704 17.384 23.304 16.8 23.992 15.984C24.184 15.76 24.4 15.648 24.64 15.648C24.848 15.648 25.008 15.744 25.12 15.936C25.248 16.128 25.312 16.392 25.312 16.728C25.312 17.352 25.16 17.848 24.856 18.216C24.024 19.224 23.2 19.96 22.384 20.424C21.568 20.888 20.712 21.12 19.816 21.12C18.456 21.12 17.392 20.72 16.624 19.92C15.856 19.104 15.472 18.016 15.472 16.656C15.472 16.128 15.512 15.552 15.592 14.928C15.688 14.304 15.84 13.512 16.048 12.552L17.008 8.16C17.04 8.016 17.096 7.76 17.176 7.392C17.256 7.024 17.32 6.68 17.368 6.36C17.416 6.024 17.44 5.696 17.44 5.376C17.44 4.864 17.296 4.456 17.008 4.152C16.72 3.848 16.312 3.696 15.784 3.696C14.824 3.696 13.864 4.208 12.904 5.232C11.944 6.256 11.056 7.912 10.24 10.2C9.424 12.472 8.784 15.384 8.32 18.936C8.208 19.752 8.04 20.32 7.816 20.64C7.608 20.96 7.192 21.12 6.568 21.12Z" fill="url(#paint0_linear_163_14)"/>
<defs>
<linearGradient id="paint0_linear_163_14" x1="1" y1="5.5" x2="26" y2="5.5" gradientUnits="userSpaceOnUse">
<stop stop-color="#C29226"/>
<stop offset="0.165289" stop-color="#B27D0F"/>
<stop offset="0.385397" stop-color="#D9B14A"/>
<stop offset="0.590219" stop-color="#FADE7B"/>
<stop offset="0.761414" stop-color="#DAB74F"/>
<stop offset="1" stop-color="#C7972B"/>
</linearGradient>
</defs>
</svg>
